<svg id="Layer_1" data-name="Layer 1" xmlns="http://www.w3.org/2000/svg" viewBox="0 0 411 204"><title>studio-logo</title><path d="M407.8,2.5V200.9H209.5V2.5H407.8m2.8-2.7H206.7V203.6H410.5L410.6-.2Z"/><path d="M.4-.2V203.6H204.2V-.2ZM50.1,71.6c4-4.1,6.6-5.7,11.5-7a74.29,74.29,0,0,1,21.2-2.4c-25.2,13-42,28-55.8,41.7-.9.9-1.9,1.9-2.8,2.7H18.1C28.9,94,44.7,76.7,50.1,71.6Zm-4.5,67.8a43.41,43.41,0,0,1-13.4,1.9,39.68,39.68,0,0,1-13.3-2L24,119.2h5.9l-4,16.2a33.22,33.22,0,0,0,7.2,1,42.84,42.84,0,0,0,7.8-1l1-3.7h5.9Zm10.9,1.1H50.6L56,119.1h5.9Zm19.1-8.1H63.7l1.4-5.1H77Zm29.8,8.1H99.5l1.7-6.7a36.19,36.19,0,0,0-5.2-5.2,40.32,40.32,0,0,0-7-4.1l-4,16H79l5.4-21.4h5.9a51,51,0,0,1,9.3,5.6,28.29,28.29,0,0,1,3.1,2.6l2.1-8.2h5.9Zm11.7,0h-5.9l5.4-21.4h5.9Zm32.1-.1h-5.9l1.7-6.7a36.19,36.19,0,0,0-5.2-5.2,40.32,40.32,0,0,0-7-4.1l-4,16h-5.9l5.4-21.3h5.9a54.62,54.62,0,0,1,9.3,5.6,28.29,28.29,0,0,1,3.1,2.6l2.1-8.2h5.9ZM185,125.5a41.08,41.08,0,0,0-12.6-2,37,37,0,0,0-7.7,1l-2.5,10.7a31.54,31.54,0,0,0,7,1,42.66,42.66,0,0,0,7.7-1l.9-3.9a63.92,63.92,0,0,0-6.8-.4,5.28,5.28,0,0,0-1.3.1l.9-4.2h1.6a40.92,40.92,0,0,1,12.1,1.8l-2.9,10.9a44.14,44.14,0,0,1-13.2,1.8,38.4,38.4,0,0,1-13.1-2l4.7-18.8a41.56,41.56,0,0,1,13.3-1.9c8.2,0,13.1,2,13.1,2Zm-38.5-21.4c-10.8,4.2-14.6,2.7-27.6-3.3s-25-11.2-36.3-12.2C69.3,87.4,59.6,91,44,101.2c-.8.5-3.3,2.1-4,2.6-3.6,2.3-5,2.9-9.3,2.9H28.1A311.27,311.27,0,0,1,59.4,81.2c4.2-3,6.6-4.1,10.7-5,28-5,54.6-2.6,80.2,1.4,20.8,3.2,36.3,6.9,36.3,6.9C184.2,85.7,166.7,96.2,146.5,104.1Z"/><path d="M256.7,79.6l7.5-4.3c1.4,3.1,3.7,5.2,7.9,5.2s5.1-1.6,5.1-3.1c0-2.3-2.2-3.2-7.8-4.8s-11.1-4.3-11.1-11.5,6.2-11.5,12.7-11.5a14.66,14.66,0,0,1,13.8,8.5l-7.3,4.3c-1.3-2.7-3.1-4.4-6.5-4.4-2.7,0-4,1.4-4,2.9,0,1.7.9,2.9,6.8,4.7,5.7,1.7,12.2,3.7,12.2,11.7,0,7.3-5.8,11.6-14,11.6S258.8,85.1,256.7,79.6Z"/><path d="M319.6,58.7h-9.7V88.2h-8.6V58.7h-9.7V50.4h28.1l-.1,8.3Z"/><path d="M328.6,76V50.4h8.6V75.2c0,2.9,1.4,5.3,5.9,5.3s5.9-2.4,5.9-5.3V50.4h8.6V76c0,8.1-6.3,12.9-14.6,12.9S328.6,84.1,328.6,76Z"/><path d="M292.1,134.1c0,10.7-7.9,18.9-18.4,18.9H258.6V115.2h15.1C284.2,115.2,292.1,123.4,292.1,134.1Zm-8.3,0c0-6.5-4.1-10.6-10-10.6h-6.5v21.2h6.5C279.7,144.7,283.8,140.6,283.8,134.1Z"/><path d="M311,115.2V153h-8.6V115.2Z"/><path d="M321.3,134.1A19.7,19.7,0,1,1,341,153.8,19.55,19.55,0,0,1,321.3,134.1Zm30.7,0c0-6.8-4.9-11.2-11-11.2a10.77,10.77,0,0,0-11,11.2c0,6.8,4.9,11.2,11,11.2S352,140.9,352,134.1Z"/></svg>